<?xml version="1.0" encoding="UTF-8" standalone="no"?><svg xmlns="http://www.w3.org/2000/svg" xmlns:xlink="http://www.w3.org/1999/xlink" contentScriptType="application/ecmascript" contentStyleType="text/css" height="875px" preserveAspectRatio="none" style="width:1154px;height:875px;" version="1.1" viewBox="0 0 1154 875" width="1154px" zoomAndPan="magnify">
    <defs>
        <filter height="300%" id="f112ex1to7yq11" width="300%" x="-1" y="-1">
            <feGaussianBlur result="blurOut" stdDeviation="2.0" />
            <feColorMatrix in="blurOut" result="blurOut2" type="matrix" values="0 0 0 0 0 0 0 0 0 0 0 0 0 0 0 0 0 0 .4 0" />
            <feOffset dx="4.0" dy="4.0" in="blurOut2" result="blurOut3" />
            <feBlend in="SourceGraphic" in2="blurOut3" mode="normal" />
        </filter>
    </defs>
    <g>
        <!--MD5=[99eba6e841e10f0e903161ac505afb50]
cluster A-->
        <rect fill="#FFFFFF" filter="url(#f112ex1to7yq11)" height="262" style="stroke:#000000;stroke-width:1.5;" width="947" x="7" y="7" />
        <rect fill="#FFFFFF" height="10" style="stroke:#000000;stroke-width:1.5;" width="15" x="934" y="12" />
        <rect fill="#FFFFFF" height="2" style="stroke:#000000;stroke-width:1.5;" width="4" x="932" y="14" />
        <rect fill="#FFFFFF" height="2" style="stroke:#000000;stroke-width:1.5;" width="4" x="932" y="18" /><text fill="#000000" font-family="sans-serif" font-size="14" font-weight="bold" lengthAdjust="spacing" textLength="11" x="475" y="32.9951">A</text>
        <!--MD5=[7ab6094aba2dbfe683d313850b4878bd]
cluster B-->
        <rect fill="#FFFFFF" filter="url(#f112ex1to7yq11)" height="319" style="stroke:#000000;stroke-width:1.5;" width="279" x="373" y="542" />
        <rect fill="#FFFFFF" height="10" style="stroke:#000000;stroke-width:1.5;" width="15" x="632" y="547" />
        <rect fill="#FFFFFF" height="2" style="stroke:#000000;stroke-width:1.5;" width="4" x="630" y="549" />
        <rect fill="#FFFFFF" height="2" style="stroke:#000000;stroke-width:1.5;" width="4" x="630" y="553" /><text fill="#000000" font-family="sans-serif" font-size="14" font-weight="bold" lengthAdjust="spacing" textLength="10" x="507.5" y="567.9951">B</text>
        <!--MD5=[7b252b082557083cb6afa3ae89fae9bf]
entity CA-->
        <rect fill="#F8F8F8" filter="url(#f112ex1to7yq11)" height="46.2969" style="stroke:#383838;stroke-width:1.5;" width="251" x="369.5" y="34" />
        <rect fill="#F8F8F8" height="10" style="stroke:#383838;stroke-width:1.5;" width="15" x="600.5" y="39" />
        <rect fill="#F8F8F8" height="2" style="stroke:#383838;stroke-width:1.5;" width="4" x="598.5" y="41" />
        <rect fill="#F8F8F8" height="2" style="stroke:#383838;stroke-width:1.5;" width="4" x="598.5" y="45" /><text fill="#000000" font-family="sans-serif" font-size="14" lengthAdjust="spacing" textLength="211" x="384.5" y="66.9951">tempA:ReplyingKafkaTemplate</text>
        <!--MD5=[6141bb9742ffd51a0e41794ebf649332]
entity IFl-->
        <ellipse cx="254" cy="232" fill="#F8F8F8" filter="url(#f112ex1to7yq11)" rx="8" ry="8" style="stroke:#383838;stroke-width:1.5;" /><text fill="#000000" font-family="sans-serif" font-size="14" lengthAdjust="spacing" textLength="463" x="22.5" y="261.9951">sendAndReceive('moviesTopic', {method='filter', name=«query»})</text>
        <!--MD5=[da69cba0ff65d03cb83bf4997ec32c5a]
entity IGt-->
        <ellipse cx="737" cy="232" fill="#F8F8F8" filter="url(#f112ex1to7yq11)" rx="8" ry="8" style="stroke:#383838;stroke-width:1.5;" /><text fill="#000000" font-family="sans-serif" font-size="14" lengthAdjust="spacing" textLength="403" x="535.5" y="261.9951">sendAndReceive('moviesTopic', {method='get', id=«id»})</text>
        <!--MD5=[db5ca709379f12a280ab2b7d6533fd7d]
entity SB-->
        <rect fill="#F8F8F8" filter="url(#f112ex1to7yq11)" height="46.2969" style="stroke:#383838;stroke-width:1.5;" width="193" x="398.5" y="807" />
        <rect fill="#F8F8F8" height="10" style="stroke:#383838;stroke-width:1.5;" width="15" x="571.5" y="812" />
        <rect fill="#F8F8F8" height="2" style="stroke:#383838;stroke-width:1.5;" width="4" x="569.5" y="814" />
        <rect fill="#F8F8F8" height="2" style="stroke:#383838;stroke-width:1.5;" width="4" x="569.5" y="818" /><text fill="#000000" font-family="sans-serif" font-size="14" lengthAdjust="spacing" textLength="153" x="413.5" y="839.9951">tempB:KafkaTemplate</text>
        <!--MD5=[6b120c0ad81ab86017dbbcb4ab482528]
entity IRPCSrv-->
        <ellipse cx="495" cy="598" fill="#F8F8F8" filter="url(#f112ex1to7yq11)" rx="8" ry="8" style="stroke:#383838;stroke-width:1.5;" /><text fill="#000000" font-family="sans-serif" font-size="14" lengthAdjust="spacing" textLength="212" x="389" y="627.9951">IKafkaListenerContainerFactory</text>
        <!--MD5=[2c8bfc6f691a2260a342f8a3a45a5f4e]
entity MB-->
        <rect fill="#F8F8F8" filter="url(#f112ex1to7yq11)" height="46.2969" style="stroke:#383838;stroke-width:1.5;" width="77" x="456.5" y="441" />
        <rect fill="#F8F8F8" height="10" style="stroke:#383838;stroke-width:1.5;" width="15" x="513.5" y="446" />
        <rect fill="#F8F8F8" height="2" style="stroke:#383838;stroke-width:1.5;" width="4" x="511.5" y="448" />
        <rect fill="#F8F8F8" height="2" style="stroke:#383838;stroke-width:1.5;" width="4" x="511.5" y="452" /><text fill="#000000" font-family="sans-serif" font-size="14" lengthAdjust="spacing" textLength="37" x="471.5" y="473.9951">Kafka</text>
        <!--MD5=[fc669a788497b9bafd1d8b9a67df70e6]
entity IRPCMB-->
        <ellipse cx="495" cy="351" fill="#F8F8F8" filter="url(#f112ex1to7yq11)" rx="8" ry="8" style="stroke:#383838;stroke-width:1.5;" /><text fill="#000000" font-family="sans-serif" font-size="14" lengthAdjust="spacing" textLength="306" x="342" y="380.9951">IReplyingKafkaOperations.sendAndReceive()</text>
        <!--MD5=[0b8b88f514d2e84cd048af06f7a599b2]
entity Prov-->
        <rect fill="#F8F8F8" filter="url(#f112ex1to7yq11)" height="46.2969" style="stroke:#383838;stroke-width:1.5;" width="159" x="805.5" y="807" />
        <rect fill="#F8F8F8" height="10" style="stroke:#383838;stroke-width:1.5;" width="15" x="944.5" y="812" />
        <rect fill="#F8F8F8" height="2" style="stroke:#383838;stroke-width:1.5;" width="4" x="942.5" y="814" />
        <rect fill="#F8F8F8" height="2" style="stroke:#383838;stroke-width:1.5;" width="4" x="942.5" y="818" /><text fill="#000000" font-family="sans-serif" font-size="14" lengthAdjust="spacing" textLength="119" x="820.5" y="839.9951">provider:RESTAPI</text>
        <!--MD5=[a973b818df2602b9cdf107e87a6935b4]
entity IFlR-->
        <ellipse cx="1017" cy="717" fill="#F8F8F8" filter="url(#f112ex1to7yq11)" rx="8" ry="8" style="stroke:#383838;stroke-width:1.5;" /><text fill="#000000" font-family="sans-serif" font-size="14" lengthAdjust="spacing" textLength="261" x="886.5" y="746.9951">GET api/movies?filter[name]=«query»</text>
        <!--MD5=[eb1027356db063dbcf104d5b9a065e9d]
entity IGtR-->
        <ellipse cx="752" cy="717" fill="#F8F8F8" filter="url(#f112ex1to7yq11)" rx="8" ry="8" style="stroke:#383838;stroke-width:1.5;" /><text fill="#000000" font-family="sans-serif" font-size="14" lengthAdjust="spacing" textLength="168" x="668" y="746.9951">GET api/movies?id=«id»</text>
        <!--MD5=[c72576c170cac8b207e8185d664dca6a]
link CA to IFl-->
        <path d="M462.9971,80.2386 C409.5982,119.0138 304.5248,195.3118 267.3886,222.278 " fill="none" id="CA-to-IFl" style="stroke:#383838;stroke-width:1.0;" />
        <polygon fill="#383838" points="263.2046,225.3161,272.8374,223.2644,267.2504,222.3781,268.1367,216.7912,263.2046,225.3161" style="stroke:#383838;stroke-width:1.0;" />
        <!--MD5=[d2ee8e9977e1b539d0fd2c0acb8c2426]
link CA to IGt-->
        <path d="M526.8861,80.0581 C580.4127,118.7654 686.1467,195.2259 723.5236,222.2547 " fill="none" id="CA-to-IGt" style="stroke:#383838;stroke-width:1.0;" />
        <polygon fill="#383838" points="727.7348,225.2999,722.7858,216.7847,723.6832,222.37,718.098,223.2673,727.7348,225.2999" style="stroke:#383838;stroke-width:1.0;" />
        <!--MD5=[65f136b7c6f9dc9ae6bcea59b8e2fe88]
reverse link IRPCSrv to SB-->
        <path d="M495,612.3144 C495,651.186 495,758.9843 495,806.7279 " fill="none" id="IRPCSrv-backto-SB" style="stroke:#383838;stroke-width:1.0;" />
        <polygon fill="#383838" points="495,607.0947,491,616.0947,495,612.0947,499,616.0947,495,607.0947" style="stroke:#383838;stroke-width:1.0;" />
        <!--MD5=[55dd433f15380f5e73d857ae98c87e51]
reverse link IRPCMB to MB-->
        <path d="M495,365.6568 C495,384.6643 495,418.0461 495,440.5842 " fill="none" id="IRPCMB-backto-MB" style="stroke:#383838;stroke-width:1.0;" />
        <polygon fill="#383838" points="495,360.2473,491,369.2473,495,365.2473,499,369.2473,495,360.2473" style="stroke:#383838;stroke-width:1.0;" />
        <!--MD5=[a6e6e9b80a6b3b335a3a41b495344f01]
link MB to IRPCSrv-->
        <path d="M495,487.0354 C495,514.7456 495,560.4193 495,583.5761 " fill="none" id="MB-to-IRPCSrv" style="stroke:#383838;stroke-width:1.0;stroke-dasharray:7.0,7.0;" />
        <polygon fill="#383838" points="495,588.6904,499,579.6904,495,583.6904,491,579.6904,495,588.6904" style="stroke:#383838;stroke-width:1.0;" /><text fill="#000000" font-family="sans-serif" font-size="13" lengthAdjust="spacing" textLength="39" x="496" y="530.0669">«use»</text>
        <!--MD5=[c4c9342983c369f20ec7e6128220fa4c]
reverse link IFlR to Prov-->
        <path d="M1003.9617,728.1616 C982.6541,746.4022 939.942,782.9663 911.9198,806.955 " fill="none" id="IFlR-backto-Prov" style="stroke:#383838;stroke-width:1.0;" />
        <polygon fill="#383838" points="1007.9271,724.7669,998.4888,727.5809,1004.1287,728.0184,1003.6913,733.6583,1007.9271,724.7669" style="stroke:#383838;stroke-width:1.0;" />
        <!--MD5=[ce3b0822e4b5f0f45cab6f1a293aedea]
reverse link IGtR to Prov-->
        <path d="M765.1371,728.1616 C786.6061,746.4022 829.6417,782.9663 857.8762,806.955 " fill="none" id="IGtR-backto-Prov" style="stroke:#383838;stroke-width:1.0;" />
        <polygon fill="#383838" points="761.1416,724.7669,765.4102,733.6427,764.9519,728.0044,770.5902,727.5461,761.1416,724.7669" style="stroke:#383838;stroke-width:1.0;" />
        <!--MD5=[a9abf843e2b9a46cca83ad5c94742946]
link IFl to IRPCMB-->
        <path d="M263.1532,236.5196 C299.9115,254.67 436.9349,322.3289 481.1502,344.1613 " fill="none" id="IFl-to-IRPCMB" style="stroke:#383838;stroke-width:1.0;stroke-dasharray:7.0,7.0;" />
        <polygon fill="#383838" points="485.8377,346.4759,479.5389,338.9046,481.3545,344.2621,475.9969,346.0777,485.8377,346.4759" style="stroke:#383838;stroke-width:1.0;" />
        <!--MD5=[e963e4d9bb7a8093c73ad38ba06b8fb4]
link IGt to IRPCMB-->
        <path d="M727.8088,236.5196 C690.898,254.67 553.306,322.3289 508.9073,344.1613 " fill="none" id="IGt-to-IRPCMB" style="stroke:#383838;stroke-width:1.0;stroke-dasharray:7.0,7.0;" />
        <polygon fill="#383838" points="504.2003,346.4759,514.0417,346.0939,508.6872,344.2695,510.5116,338.915,504.2003,346.4759" style="stroke:#383838;stroke-width:1.0;" />
        <!--MD5=[72acd0bf4b62f8157c0211d727390969]
link B to IFlR-->
        <path d="M652.012,600.5561 C652.2112,600.6196 652.4138,600.6843 652.62,600.75 C653.4444,601.0131 654.3239,601.2936 655.2566,601.5912 C657.122,602.1863 659.2002,602.8494 661.4769,603.5757 C670.5837,606.4811 682.8656,610.3995 697.3992,615.0362 C726.4663,624.3096 764.5402,636.4565 804.2339,649.1202 C883.6211,674.4475 969.4873,701.8418 1002.7361,712.4493 " fill="none" id="B-to-IFlR" style="stroke:#383838;stroke-width:1.0;stroke-dasharray:7.0,7.0;" />
        <polygon fill="#383838" points="1007.8348,714.076,1000.4764,707.5297,1003.0714,712.5563,998.0448,715.1513,1007.8348,714.076" style="stroke:#383838;stroke-width:1.0;" />
        <!--MD5=[b3cc5244050922af338de9ec65092064]
link B to IGtR-->
        <path d="M652.1711,607.0033 C652.3518,607.2025 652.5351,607.4044 652.7208,607.6091 C654.2071,609.2467 655.8536,611.061 657.637,613.026 C664.7706,620.8862 674.0935,631.1586 684.0995,642.1838 C704.1117,664.2342 726.8568,689.296 740.2873,704.0943 " fill="none" id="B-to-IGtR" style="stroke:#383838;stroke-width:1.0;stroke-dasharray:7.0,7.0;" />
        <polygon fill="#383838" points="743.6712,707.823,740.5846,698.4703,740.3109,704.1205,734.6607,703.8468,743.6712,707.823" style="stroke:#383838;stroke-width:1.0;" />
        <!--MD5=[dd0b88048c33b12700f296e1d28b64a0]
@startuml

skinparam monochrome true

!$MB = "Kafka"
!$obj = "api/movies"
!$gtM = "GET"
!$IFilterREST = $gtM+" "+$obj+"?filter[name]=<<query>>"
!$IGetREST = $gtM+" "+$obj+"?id=<<id>>"
!$IFilter = "sendAndReceive('moviesTopic', {method='filter', name=<<query>>})"
!$IGet = "sendAndReceive('moviesTopic', {method='get', id=<<id>>})"
!$IRPCMB = "IReplyingKafkaOperations.sendAndReceive()"
!$IRPCSrv = "IKafkaListenerContainerFactory"

!$name = "A"
!$Cmp = "temp"+$name+":ReplyingKafkaTemplate"
component "$name" as A {
  component "$Cmp" as CA
  interface "$IFilter" as IFl
  interface "$IGet" as IGt
  CA - -> IFl
  CA - -> IGt
}

!$name = "B"
!$Cmp = "temp"+$name+":KafkaTemplate"
component B {
  component "$Cmp" as SB
  interface "$IRPCSrv" as IRPCSrv
  SB -up-> IRPCSrv
}

component "$MB" as MB
interface "$IRPCMB" as IRPCMB
MB -up-> IRPCMB
MB .down.> IRPCSrv : <<use>>

component "provider:RESTAPI" as Prov
interface "$IFilterREST" as IFlR
interface "$IGetREST" as IGtR
Prov -up-> IFlR
Prov -up-> IGtR

IFl ..> IRPCMB
IGt ..> IRPCMB

B ..> IFlR
B ..> IGtR


@enduml

@startuml

skinparam monochrome true


component "A" as A {
  component "tempA:ReplyingKafkaTemplate" as CA
  interface "sendAndReceive('moviesTopic', {method='filter', name=<<query>>})" as IFl
  interface "sendAndReceive('moviesTopic', {method='get', id=<<id>>})" as IGt
  CA - -> IFl
  CA - -> IGt
}

component B {
  component "tempB:KafkaTemplate" as SB
  interface "IKafkaListenerContainerFactory" as IRPCSrv
  SB -up-> IRPCSrv
}

component "Kafka" as MB
interface "IReplyingKafkaOperations.sendAndReceive()" as IRPCMB
MB -up-> IRPCMB
MB .down.> IRPCSrv : <<use>>

component "provider:RESTAPI" as Prov
interface "GET api/movies?filter[name]=<<query>>" as IFlR
interface "GET api/movies?id=<<id>>" as IGtR
Prov -up-> IFlR
Prov -up-> IGtR

IFl ..> IRPCMB
IGt ..> IRPCMB

B ..> IFlR
B ..> IGtR


@enduml

PlantUML version 1.2021.01(Tue Feb 02 12:55:08 YEKT 2021)
(GPL source distribution)
Java Runtime: OpenJDK Runtime Environment
JVM: OpenJDK 64-Bit Server VM
Default Encoding: UTF-8
Language: en
Country: US
-->
    </g>
</svg>